<svg width="256" height="256" viewBox="0 0 256 256" fill="none" xmlns="http://www.w3.org/2000/svg">
<path d="M160 216H159.6C158.041 215.91 156.542 215.371 155.282 214.448C154.023 213.526 153.056 212.259 152.5 210.8L95.3 60.8001L63.3 131.3C62.6647 132.703 61.638 133.893 60.3431 134.727C59.0481 135.56 57.5401 136.002 56 136H24C21.8783 136 19.8434 135.157 18.3431 133.657C16.8429 132.157 16 130.122 16 128C16 125.878 16.8429 123.844 18.3431 122.343C19.8434 120.843 21.8783 120 24 120H50.8L88.7 36.7001C89.3766 35.2656 90.4546 34.0581 91.8035 33.2239C93.1525 32.3897 94.7144 31.9646 96.3 32.0001C97.8796 32.0586 99.4065 32.5837 100.688 33.5092C101.969 34.4347 102.948 35.719 103.5 37.2001L161 188.1L192.8 124.4C193.489 123.083 194.522 121.978 195.791 121.203C197.059 120.428 198.514 120.012 200 120H232C234.122 120 236.157 120.843 237.657 122.343C239.157 123.844 240 125.878 240 128C240 130.122 239.157 132.157 237.657 133.657C236.157 135.157 234.122 136 232 136H204.9L167.2 211.6C166.511 212.917 165.478 214.022 164.209 214.797C162.941 215.572 161.486 215.988 160 216Z" fill="#310062"/>
</svg>
