<svg width="90" height="90" viewBox="0 0 90 90" fill="none" xmlns="http://www.w3.org/2000/svg">
<path d="M83.3906 53.4024C83.1456 52.7426 82.8639 52.0971 82.5469 51.4688L67.957 18.211C67.811 17.8956 67.6084 17.6096 67.3594 17.3672C66.3144 16.3202 65.0732 15.4895 63.7069 14.9227C62.3405 14.3559 60.8758 14.0642 59.3965 14.0642C57.9172 14.0642 56.4525 14.3559 55.0861 14.9227C53.7197 15.4895 52.4786 16.3202 51.4336 17.3672C51.176 17.6261 50.972 17.9332 50.8332 18.2711C50.6945 18.6089 50.6237 18.9707 50.625 19.336V29.5313H39.375V19.336C39.3763 18.9707 39.3055 18.6089 39.1668 18.2711C39.028 17.9332 38.824 17.6261 38.5664 17.3672C37.5215 16.3202 36.2803 15.4895 34.9139 14.9227C33.5475 14.3559 32.0828 14.0642 30.6035 14.0642C29.1243 14.0642 27.6595 14.3559 26.2931 14.9227C24.9268 15.4895 23.6856 16.3202 22.6406 17.3672C22.3916 17.6096 22.189 17.8956 22.043 18.211L7.45313 51.4688C7.13613 52.0971 6.85444 52.7426 6.60938 53.4024C5.95605 55.2179 5.62297 57.133 5.62501 59.0625C5.62501 63.538 7.40291 67.8303 10.5676 70.9949C13.7323 74.1596 18.0245 75.9375 22.5 75.9375C26.9755 75.9375 31.2678 74.1596 34.4324 70.9949C37.5971 67.8303 39.375 63.538 39.375 59.0625V35.1563H50.625V59.0625C50.625 63.538 52.4029 67.8303 55.5676 70.9949C58.7323 74.1596 63.0245 75.9375 67.5 75.9375C71.9755 75.9375 76.2678 74.1596 79.4324 70.9949C82.5971 67.8303 84.375 63.538 84.375 59.0625C84.377 57.133 84.044 55.2179 83.3906 53.4024ZM26.9649 21.0235C27.9015 20.2331 29.0694 19.7681 30.2929 19.6984C31.5165 19.6287 32.7296 19.9579 33.75 20.6367V46.5117C30.6709 43.7172 26.6582 42.1748 22.5 42.1875C20.7341 42.1843 18.9785 42.4571 17.2969 42.9961L26.9649 21.0235ZM22.5 70.3125C20.6939 70.3193 18.9128 69.8898 17.3083 69.0605C15.7038 68.2311 14.3234 67.0266 13.2844 65.5492C12.2454 64.0718 11.5785 62.3653 11.3407 60.5749C11.1028 58.7845 11.3008 56.9631 11.918 55.2656L12.5508 53.8594C13.4741 52.0895 14.8517 50.5971 16.5422 49.5354C18.2328 48.4738 20.1754 47.8811 22.1706 47.8181C24.1659 47.7552 26.142 48.2243 27.8961 49.1774C29.6501 50.1304 31.119 51.533 32.152 53.2412C33.185 54.9495 33.7448 56.9018 33.774 58.8978C33.8033 60.8939 33.3008 62.8618 32.3183 64.5995C31.3358 66.3372 29.9086 67.7823 28.1832 68.7862C26.4578 69.7902 24.4963 70.317 22.5 70.3125ZM56.25 20.6367C57.2704 19.9579 58.4835 19.6287 59.7071 19.6984C60.9306 19.7681 62.0985 20.2331 63.0352 21.0235L72.7031 42.9961C71.0215 42.4571 69.2659 42.1843 67.5 42.1875C63.3418 42.1748 59.3292 43.7172 56.25 46.5117V20.6367ZM67.5 70.3125C65.5038 70.317 63.5423 69.7902 61.8168 68.7862C60.0914 67.7823 58.6642 66.3372 57.6817 64.5995C56.6992 62.8618 56.1968 60.8939 56.226 58.8978C56.2552 56.9018 56.815 54.9495 57.848 53.2412C58.881 51.533 60.3499 50.1304 62.104 49.1774C63.858 48.2243 65.8341 47.7552 67.8294 47.8181C69.8247 47.8811 71.7673 48.4738 73.4578 49.5354C75.1483 50.5971 76.526 52.0895 77.4492 53.8594L78.082 55.2656C78.6992 56.9631 78.8973 58.7845 78.6594 60.5749C78.4215 62.3653 77.7547 64.0718 76.7157 65.5492C75.6767 67.0266 74.2962 68.2311 72.6917 69.0605C71.0872 69.8898 69.3062 70.3193 67.5 70.3125Z" fill="white"/>
</svg>
