<svg width="30" height="30" viewBox="0 0 30 30" fill="none" xmlns="http://www.w3.org/2000/svg">
<path d="M24.375 3.75H21.5625V2.8125C21.5625 2.56386 21.4637 2.3254 21.2879 2.14959C21.1121 1.97377 20.8736 1.875 20.625 1.875C20.3764 1.875 20.1379 1.97377 19.9621 2.14959C19.7863 2.3254 19.6875 2.56386 19.6875 2.8125V3.75H10.3125V2.8125C10.3125 2.56386 10.2137 2.3254 10.0379 2.14959C9.8621 1.97377 9.62364 1.875 9.375 1.875C9.12636 1.875 8.8879 1.97377 8.71209 2.14959C8.53627 2.3254 8.4375 2.56386 8.4375 2.8125V3.75H5.625C5.12772 3.75 4.65081 3.94754 4.29917 4.29917C3.94754 4.65081 3.75 5.12772 3.75 5.625V24.375C3.75 24.8723 3.94754 25.3492 4.29917 25.7008C4.65081 26.0525 5.12772 26.25 5.625 26.25H24.375C24.8723 26.25 25.3492 26.0525 25.7008 25.7008C26.0525 25.3492 26.25 24.8723 26.25 24.375V5.625C26.25 5.12772 26.0525 4.65081 25.7008 4.29917C25.3492 3.94754 24.8723 3.75 24.375 3.75ZM8.4375 5.625V6.5625C8.4375 6.81114 8.53627 7.0496 8.71209 7.22541C8.8879 7.40123 9.12636 7.5 9.375 7.5C9.62364 7.5 9.8621 7.40123 10.0379 7.22541C10.2137 7.0496 10.3125 6.81114 10.3125 6.5625V5.625H19.6875V6.5625C19.6875 6.81114 19.7863 7.0496 19.9621 7.22541C20.1379 7.40123 20.3764 7.5 20.625 7.5C20.8736 7.5 21.1121 7.40123 21.2879 7.22541C21.4637 7.0496 21.5625 6.81114 21.5625 6.5625V5.625H24.375V9.375H5.625V5.625H8.4375ZM24.375 24.375H5.625V11.25H24.375V24.375Z" fill="#310062"/>
</svg>
