<svg width="90" height="90" viewBox="0 0 90 90" fill="none" xmlns="http://www.w3.org/2000/svg">
<path d="M80.1562 70.3125H77.3438V14.0625C77.3438 13.3166 77.0474 12.6012 76.52 12.0738C75.9925 11.5463 75.2772 11.25 74.5312 11.25H54.8438C54.0978 11.25 53.3825 11.5463 52.855 12.0738C52.3276 12.6012 52.0312 13.3166 52.0312 14.0625V28.125H35.1562C34.4103 28.125 33.695 28.4213 33.1675 28.9488C32.6401 29.4762 32.3438 30.1916 32.3438 30.9375V45H15.4688C14.7228 45 14.0075 45.2963 13.48 45.8238C12.9526 46.3512 12.6562 47.0666 12.6562 47.8125V70.3125H9.84375C9.09783 70.3125 8.38246 70.6088 7.85501 71.1363C7.32757 71.6637 7.03125 72.3791 7.03125 73.125C7.03125 73.8709 7.32757 74.5863 7.85501 75.1137C8.38246 75.6412 9.09783 75.9375 9.84375 75.9375H80.1562C80.9022 75.9375 81.6175 75.6412 82.145 75.1137C82.6724 74.5863 82.9688 73.8709 82.9688 73.125C82.9688 72.3791 82.6724 71.6637 82.145 71.1363C81.6175 70.6088 80.9022 70.3125 80.1562 70.3125ZM37.9688 33.75H52.0312V70.3125H37.9688V33.75ZM18.2812 50.625H32.3438V70.3125H18.2812V50.625ZM57.6562 70.3125V16.875H71.7188V70.3125H57.6562Z" fill="white"/>
</svg>
