<svg width="24" height="24" viewBox="0 0 24 24" fill="none" xmlns="http://www.w3.org/2000/svg">
<path d="M16.6688 9.23438C16.8053 9.37867 16.8791 9.57126 16.8738 9.76988C16.8686 9.9685 16.7847 10.1569 16.6406 10.2938L11.1469 15.5438C11.0049 15.6774 10.8169 15.7512 10.6219 15.75C10.4298 15.7507 10.2449 15.6768 10.1063 15.5438L7.35938 12.9188C7.28319 12.8523 7.22123 12.7711 7.17722 12.6801C7.13321 12.589 7.10806 12.49 7.10328 12.389C7.0985 12.2881 7.11419 12.1871 7.14941 12.0924C7.18463 11.9976 7.23865 11.9109 7.30822 11.8375C7.3778 11.7642 7.46149 11.7056 7.55426 11.6654C7.64703 11.6252 7.74698 11.6042 7.84809 11.6036C7.94919 11.603 8.04938 11.6229 8.14261 11.662C8.23585 11.7011 8.32021 11.7587 8.39063 11.8312L10.6219 13.9594L15.6094 9.20625C15.7537 9.06966 15.9463 8.9959 16.1449 9.00117C16.3435 9.00645 16.5319 9.09032 16.6688 9.23438ZM21.75 12C21.75 13.9284 21.1782 15.8134 20.1068 17.4168C19.0355 19.0202 17.5127 20.2699 15.7312 21.0078C13.9496 21.7458 11.9892 21.9389 10.0979 21.5627C8.20656 21.1865 6.46928 20.2579 5.10571 18.8943C3.74215 17.5307 2.81355 15.7934 2.43735 13.9021C2.06114 12.0108 2.25422 10.0504 2.99218 8.26884C3.73013 6.48726 4.97982 4.96451 6.58319 3.89317C8.18657 2.82183 10.0716 2.25 12 2.25C14.5843 2.25496 17.0614 3.28378 18.8888 5.11118C20.7162 6.93859 21.745 9.41566 21.75 12ZM20.25 12C20.25 10.3683 19.7661 8.77325 18.8596 7.41655C17.9531 6.05984 16.6646 5.00242 15.1571 4.37799C13.6497 3.75357 11.9909 3.59019 10.3905 3.90852C8.79017 4.22685 7.32016 5.01259 6.16637 6.16637C5.01259 7.32015 4.22685 8.79016 3.90853 10.3905C3.5902 11.9908 3.75358 13.6496 4.378 15.1571C5.00242 16.6646 6.05984 17.9531 7.41655 18.8596C8.77326 19.7661 10.3683 20.25 12 20.25C14.1873 20.2475 16.2843 19.3775 17.8309 17.8309C19.3775 16.2843 20.2475 14.1873 20.25 12Z" fill="#7226BE"/>
</svg>
