<svg width="30" height="30" viewBox="0 0 30 30" fill="none" xmlns="http://www.w3.org/2000/svg">
<path d="M15 26.9531C12.6359 26.9531 10.3249 26.2521 8.3592 24.9387C6.39352 23.6252 4.86146 21.7584 3.95676 19.5743C3.05205 17.3901 2.81534 14.9867 3.27656 12.6681C3.73777 10.3494 4.87619 8.21954 6.54787 6.54787C8.21954 4.87619 10.3494 3.73777 12.6681 3.27656C14.9867 2.81534 17.3901 3.05205 19.5743 3.95676C21.7584 4.86146 23.6252 6.39352 24.9387 8.3592C26.2521 10.3249 26.9531 12.6359 26.9531 15C26.9469 18.1683 25.6856 21.205 23.4453 23.4453C21.205 25.6856 18.1683 26.9469 15 26.9531ZM15 4.45313C12.914 4.45313 10.8749 5.07169 9.14048 6.2306C7.40605 7.3895 6.05423 9.0367 5.25596 10.9639C4.4577 12.8911 4.24883 15.0117 4.65579 17.0576C5.06274 19.1035 6.06723 20.9828 7.54224 22.4578C9.01725 23.9328 10.8965 24.9373 12.9424 25.3442C14.9883 25.7512 17.1089 25.5423 19.0361 24.744C20.9633 23.9458 22.6105 22.594 23.7694 20.8595C24.9283 19.1251 25.5469 17.086 25.5469 15C25.5438 12.2038 24.4316 9.52292 22.4543 7.54566C20.4771 5.56841 17.7963 4.45623 15 4.45313ZM22.2656 15C22.2656 14.8135 22.1916 14.6347 22.0597 14.5028C21.9278 14.371 21.749 14.2969 21.5625 14.2969H15.7031V8.43751C15.7031 8.25103 15.6291 8.07218 15.4972 7.94032C15.3653 7.80846 15.1865 7.73438 15 7.73438C14.8135 7.73438 14.6347 7.80846 14.5028 7.94032C14.371 8.07218 14.2969 8.25103 14.2969 8.43751V15C14.2969 15.1865 14.371 15.3653 14.5028 15.4972C14.6347 15.6291 14.8135 15.7031 15 15.7031H21.5625C21.749 15.7031 21.9278 15.6291 22.0597 15.4972C22.1916 15.3653 22.2656 15.1865 22.2656 15Z" fill="#310062"/>
</svg>
