<svg width="90" height="90" viewBox="0 0 90 90" fill="none" xmlns="http://www.w3.org/2000/svg">
<path d="M54.8438 59.0625C59.712 59.0603 64.4871 57.7281 68.6533 55.2098C72.8195 52.6915 76.2186 49.0828 78.4833 44.7734C80.748 40.4641 81.7923 35.6179 81.5034 30.7583C81.2146 25.8986 79.6035 21.2103 76.8442 17.1996C74.0849 13.1889 70.2822 10.0083 65.847 8.00128C61.4117 5.99428 56.5124 5.23719 51.6783 5.81176C46.8441 6.38634 42.2587 8.27075 38.4175 11.2615C34.5763 14.2522 31.6251 18.2355 29.8828 22.7813C28.8379 22.599 27.7795 22.5049 26.7188 22.5C21.8703 22.5 17.2204 24.4261 13.792 27.8545C10.3636 31.2829 8.4375 35.9328 8.4375 40.7813C8.4375 45.6297 10.3636 50.2797 13.792 53.7081C17.2204 57.1365 21.8703 59.0625 26.7188 59.0625H40.5703L34.207 68.7656C33.9275 69.1901 33.7682 69.6824 33.7461 70.1902C33.724 70.698 33.8399 71.2023 34.0815 71.6495C34.3231 72.0967 34.6814 72.47 35.1183 72.7298C35.5551 72.9896 36.0542 73.1262 36.5625 73.125H49.0078L42.6445 82.8281C42.2343 83.4529 42.089 84.2149 42.2406 84.9468C42.3923 85.6786 42.8284 86.3202 43.4531 86.7305C44.0778 87.1407 44.8399 87.286 45.5718 87.1344C46.3036 86.9827 46.9452 86.5466 47.3555 85.9219L56.5664 71.8594C56.8555 71.4394 57.0218 70.9472 57.0467 70.438C57.0715 69.9287 56.9539 69.4227 56.707 68.9766C56.4643 68.5269 56.1038 68.1519 55.664 67.8918C55.2242 67.6316 54.7219 67.4962 54.2109 67.5H41.7656L47.3203 59.0625H54.8438ZM14.0625 40.7813C14.0625 37.4246 15.3959 34.2054 17.7694 31.8319C20.1429 29.4584 23.3621 28.125 26.7188 28.125C27.2946 28.1251 27.8699 28.1604 28.4414 28.2305C28.2285 29.5912 28.1227 30.9665 28.125 32.3438C28.125 33.0897 28.4213 33.8051 28.9488 34.3325C29.4762 34.8599 30.1916 35.1563 30.9375 35.1563C31.6834 35.1563 32.3988 34.8599 32.9262 34.3325C33.4537 33.8051 33.75 33.0897 33.75 32.3438C33.75 28.1718 34.9871 24.0935 37.3049 20.6247C39.6228 17.1559 42.9171 14.4522 46.7715 12.8557C50.6259 11.2591 54.8672 10.8414 58.9589 11.6553C63.0507 12.4692 66.8093 14.4782 69.7593 17.4282C72.7093 20.3782 74.7183 24.1368 75.5322 28.2286C76.3461 32.3204 75.9284 36.5616 74.3318 40.416C72.7353 44.2704 70.0317 47.5648 66.5628 49.8826C63.094 52.2004 59.0157 53.4375 54.8438 53.4375H26.7188C23.3621 53.4375 20.1429 52.1041 17.7694 49.7306C15.3959 47.3571 14.0625 44.1379 14.0625 40.7813Z" fill="white"/>
</svg>
