<svg width="30" height="30" viewBox="0 0 30 30" fill="none" xmlns="http://www.w3.org/2000/svg">
<path d="M28.9805 14.625C28.9453 14.5312 27.9492 12.3281 25.7461 10.1133C22.8047 7.18359 19.0899 5.625 15 5.625C10.9102 5.625 7.19532 7.18359 4.25391 10.1133C2.05079 12.3281 1.05469 14.5312 1.01954 14.625C0.967215 14.7431 0.940186 14.8708 0.940186 15C0.940186 15.1292 0.967215 15.2569 1.01954 15.375C1.05469 15.4688 2.05079 17.6719 4.25391 19.8867C7.19532 22.8164 10.9102 24.375 15 24.375C19.0899 24.375 22.8047 22.8164 25.7461 19.8867C27.9492 17.6719 28.9453 15.4688 28.9805 15.375C29.0328 15.2569 29.0598 15.1292 29.0598 15C29.0598 14.8708 29.0328 14.7431 28.9805 14.625ZM15 22.5C11.3906 22.5 8.23829 21.1875 5.63672 18.5977C4.56157 17.5388 3.64931 16.3264 2.92969 15C3.64833 13.6695 4.56063 12.4531 5.63672 11.3906C8.23829 8.8125 11.3906 7.5 15 7.5C18.6094 7.5 21.7617 8.8125 24.3633 11.3906C25.4394 12.4531 26.3517 13.6695 27.0703 15C26.2266 16.582 22.5469 22.5 15 22.5ZM15 9.375C13.8875 9.375 12.7999 9.7049 11.8749 10.323C10.9499 10.9411 10.2289 11.8196 9.80318 12.8474C9.37744 13.8752 9.26605 15.0062 9.48309 16.0974C9.70013 17.1885 10.2359 18.1908 11.0225 18.9775C11.8092 19.7641 12.8115 20.2999 13.9026 20.5169C14.9938 20.734 16.1248 20.6226 17.1526 20.1968C18.1804 19.7711 19.0589 19.0501 19.677 18.1251C20.2951 17.2001 20.625 16.1125 20.625 15C20.625 13.5082 20.0324 12.0774 18.9775 11.0225C17.9226 9.96763 16.4918 9.375 15 9.375ZM15 18.75C14.2583 18.75 13.5333 18.5301 12.9166 18.118C12.2999 17.706 11.8193 17.1203 11.5355 16.4351C11.2516 15.7498 11.1774 14.9958 11.3221 14.2684C11.4668 13.541 11.8239 12.8728 12.3484 12.3483C12.8728 11.8239 13.541 11.4667 14.2684 11.3221C14.9958 11.1774 15.7498 11.2516 16.4351 11.5355C17.1203 11.8193 17.706 12.2999 18.118 12.9166C18.5301 13.5333 18.75 14.2583 18.75 15C18.7469 15.9936 18.3508 16.9456 17.6482 17.6482C16.9457 18.3508 15.9936 18.7469 15 18.75Z" fill="#310062"/>
</svg>
