<svg width="46" height="46" viewBox="0 0 46 46" fill="none" xmlns="http://www.w3.org/2000/svg">
<path d="M42.3434 1.0509H3.66126C1.63627 1.0509 0 2.68564 0 4.70755V41.294C0 43.3098 1.63627 44.9491 3.66126 44.9491H42.3434C44.3591 44.9491 46 43.3113 46 41.294V4.70755C45.9985 2.68564 44.3576 1.0509 42.3434 1.0509ZM30.9202 14.0842C29.9691 13.5281 29.2148 13.0886 28.2668 13.0886C27.3388 13.0886 26.546 13.3206 26.1404 13.7109C25.7348 14.0981 25.5335 14.8478 25.5335 15.9556V17.5949H30.4946L29.4206 22.155H25.5335V37.307H19.3019V22.155H16.3935V17.5949H19.3049V15.8542C19.3049 14.0212 19.5246 12.9242 19.9579 12.0193C20.3896 11.1174 21.227 10.1126 22.3916 9.54416C23.5546 8.97722 25.2754 8.69145 27.0561 8.69145C28.8814 8.69145 30.3071 9.29987 32.0556 9.78998L30.9202 14.0842Z" fill="white"/>
</svg>
