<svg width="90" height="90" viewBox="0 0 90 90" fill="none" xmlns="http://www.w3.org/2000/svg">
<path d="M45.0001 25.3124C41.1063 25.3124 37.2999 26.467 34.0623 28.6303C30.8247 30.7936 28.3013 33.8684 26.8112 37.4658C25.3211 41.0632 24.9312 45.0217 25.6909 48.8407C26.4505 52.6597 28.3256 56.1677 31.0789 58.921C33.8323 61.6744 37.3403 63.5494 41.1593 64.3091C44.9783 65.0687 48.9368 64.6788 52.5342 63.1887C56.1316 61.6986 59.2064 59.1752 61.3697 55.9376C63.5329 52.7001 64.6876 48.8937 64.6876 44.9999C64.6876 39.7784 62.6134 34.7708 58.9213 31.0787C55.2291 27.3866 50.2215 25.3124 45.0001 25.3124ZM45.0001 59.0624C42.2188 59.0624 39.5 58.2376 37.1874 56.6924C34.8748 55.1472 33.0724 52.9509 32.008 50.3813C30.9437 47.8118 30.6652 44.9843 31.2078 42.2564C31.7504 39.5285 33.0897 37.0228 35.0564 35.0562C37.0231 33.0895 39.5288 31.7502 42.2566 31.2076C44.9845 30.665 47.812 30.9434 50.3816 32.0078C52.9512 33.0722 55.1474 34.8746 56.6926 37.1871C58.2378 39.4997 59.0626 42.2186 59.0626 44.9999C59.0626 48.7295 57.581 52.3063 54.9438 54.9435C52.3066 57.5808 48.7297 59.0624 45.0001 59.0624ZM82.547 52.8749L77.3087 45.9139C77.3438 45.2811 77.3087 44.6131 77.3087 44.1209L82.547 37.1249C82.8075 36.7844 82.9845 36.3876 83.0639 35.9663C83.1432 35.545 83.1227 35.111 83.004 34.6991C82.118 31.4579 80.8307 28.34 79.172 25.4178C78.958 25.0466 78.6639 24.7278 78.3112 24.4845C77.9584 24.2413 77.5559 24.0797 77.1329 24.0116L68.5196 22.7811L67.2188 21.4803L65.9884 12.867C65.9202 12.444 65.7587 12.0415 65.5154 11.6888C65.2722 11.3361 64.9533 11.042 64.5821 10.828C61.66 9.16926 58.5421 7.88196 55.3009 6.99595C54.889 6.87722 54.4549 6.85671 54.0337 6.93608C53.6124 7.01545 53.2156 7.19249 52.8751 7.45298L45.9142 12.6561H44.086L37.1251 7.45298C36.7846 7.19249 36.3878 7.01545 35.9665 6.93608C35.5453 6.85671 35.1112 6.87722 34.6993 6.99595C31.4581 7.88196 28.3402 9.16926 25.4181 10.828C25.0469 11.042 24.728 11.3361 24.4848 11.6888C24.2415 12.0415 24.08 12.444 24.0118 12.867L22.7814 21.4803L21.4806 22.7811L12.8673 24.0116C12.4443 24.0797 12.0418 24.2413 11.689 24.4845C11.3363 24.7278 11.0422 25.0466 10.8282 25.4178C9.16951 28.34 7.8822 31.4579 6.9962 34.6991C6.87746 35.111 6.85696 35.545 6.93633 35.9663C7.0157 36.3876 7.19274 36.7844 7.45323 37.1249L12.6915 44.0858V45.8788L7.45323 52.8749C7.19274 53.2153 7.0157 53.6121 6.93633 54.0334C6.85696 54.4547 6.87746 54.8887 6.9962 55.3006C7.8822 58.5418 9.16951 61.6597 10.8282 64.5819C11.0422 64.9531 11.3363 65.2719 11.689 65.5152C12.0418 65.7584 12.4443 65.92 12.8673 65.9881L21.4806 67.2186L22.7814 68.5194L24.0118 77.1327C24.08 77.5557 24.2415 77.9582 24.4848 78.3109C24.728 78.6637 25.0469 78.9577 25.4181 79.1717C28.3402 80.8304 31.4581 82.1178 34.6993 83.0038C34.9393 83.0733 35.1878 83.1088 35.4376 83.1092C36.0474 83.1172 36.642 82.919 37.1251 82.5467L44.086 77.3436H45.9142L52.8751 82.5467C53.2156 82.8072 53.6124 82.9843 54.0337 83.0636C54.4549 83.143 54.889 83.1225 55.3009 83.0038C58.5421 82.1178 61.66 80.8304 64.5821 79.1717C64.9533 78.9577 65.2722 78.6637 65.5154 78.3109C65.7587 77.9582 65.9202 77.5557 65.9884 77.1327L67.2188 68.4842C67.6407 68.0624 68.1329 67.6053 68.4845 67.2186L77.1329 65.9881C77.5559 65.92 77.9584 65.7584 78.3112 65.5152C78.6639 65.2719 78.958 64.9531 79.172 64.5819C80.8307 61.6597 82.118 58.5418 83.004 55.3006C83.1227 54.8887 83.1432 54.4547 83.0639 54.0334C82.9845 53.6121 82.8075 53.2153 82.547 52.8749ZM74.9181 60.6092L66.7267 61.7694C66.0943 61.873 65.5137 62.1818 65.0743 62.6483C64.6524 63.1053 63.3517 64.4413 62.7188 65.0038C62.2054 65.445 61.8684 66.0567 61.7696 66.7264L60.6095 74.9178C58.8583 75.8526 57.0219 76.6178 55.1251 77.203L48.4806 72.2108C47.9457 71.8113 47.2822 71.6235 46.6173 71.6834H43.3829C42.718 71.6235 42.0545 71.8113 41.5196 72.2108L34.8751 77.203C32.9783 76.6178 31.1419 75.8526 29.3907 74.9178L28.2306 66.7264C28.1318 66.0567 27.7948 65.445 27.2814 65.0038C26.4678 64.2957 25.7043 63.5321 24.9962 62.7186C24.5549 62.2052 23.9433 61.8681 23.2735 61.7694L15.0821 60.6092C14.1621 58.8511 13.3975 57.016 12.797 55.1249L17.7892 48.4803C18.1511 47.9653 18.3474 47.352 18.3517 46.7225C18.3165 46.0897 18.2814 44.2616 18.3165 43.3827C18.3765 42.7178 18.1887 42.0542 17.7892 41.5194L12.797 34.8749C13.3975 32.9837 14.1621 31.1486 15.0821 29.3905L23.2735 28.2303C23.9433 28.1316 24.5549 27.7945 24.9962 27.2811C25.7043 26.4676 26.4678 25.704 27.2814 24.996C27.7948 24.5547 28.1318 23.943 28.2306 23.2733L29.3907 15.0819C31.1488 14.1619 32.9839 13.3973 34.8751 12.7967L41.5196 17.7889C42.0545 18.1884 42.718 18.3762 43.3829 18.3163C44.4376 18.2811 45.5626 18.2811 46.6173 18.3163C47.2822 18.3762 47.9457 18.1884 48.4806 17.7889L55.1251 12.7967C57.0219 13.382 58.8583 14.1472 60.6095 15.0819L61.7696 23.2733C61.8684 23.943 62.2054 24.5547 62.7188 24.996C63.5324 25.704 64.2959 26.4676 65.004 27.2811C65.4453 27.7945 66.0569 28.1316 66.7267 28.2303L74.9181 29.3905C75.8528 31.1416 76.618 32.9781 77.2032 34.8749L72.211 41.5194C71.8491 42.0344 71.6528 42.6477 71.6485 43.2772C71.6837 43.91 71.7188 45.7381 71.6837 46.617C71.6237 47.2819 71.8115 47.9455 72.211 48.4803L77.2032 55.1249C76.618 57.0216 75.8528 58.8581 74.9181 60.6092Z" fill="white"/>
</svg>
