<svg width="90" height="90" viewBox="0 0 90 90" fill="none" xmlns="http://www.w3.org/2000/svg">
<path d="M88.3477 37.6877L79.6993 21.1291C79.0164 19.8257 77.85 18.8417 76.4501 18.3882C75.0503 17.9348 73.5284 18.0479 72.211 18.7034L64.0196 22.8166H58.254L46.6524 17.5432C45.4331 17.0114 44.0687 16.9122 42.7852 17.2619L25.6641 22.2541L17.7891 18.3166C16.4659 17.673 14.9441 17.57 13.5462 18.0294C12.1483 18.4888 10.9843 19.4745 10.3008 20.7776L1.6524 37.3362C1.30468 37.9954 1.09143 38.7171 1.02505 39.4595C0.958658 40.2018 1.04046 40.9499 1.26568 41.6604C1.7421 43.0943 2.76556 44.282 4.11334 44.9651L12.5508 49.1838L31.5352 64.0198C32.1543 64.5115 32.8747 64.8597 33.6446 65.0393L54.0352 70.137C54.4717 70.2495 54.9204 70.3086 55.3711 70.3127C56.8704 70.3006 58.3068 69.7084 59.379 68.6604L72.3165 55.7229H72.3516C72.3516 55.6877 72.3868 55.6877 72.3868 55.6526H72.4571L77.6954 49.4299L85.8868 45.3166C86.5564 44.9904 87.1536 44.5329 87.6428 43.9712C88.132 43.4095 88.5032 42.7552 88.7344 42.0471C88.9606 41.3309 89.0429 40.577 88.9765 39.8288C88.9101 39.0806 88.6964 38.353 88.3477 37.6877ZM69.8555 49.9221L56.4961 40.219C56.0088 39.8672 55.4215 39.6808 54.8204 39.6871C54.2194 39.6934 53.6362 39.8921 53.1563 40.2541L48.6563 43.6291C47.1891 44.7085 45.4153 45.2907 43.5938 45.2907C41.7723 45.2907 39.9985 44.7085 38.5313 43.6291L36.6329 42.1877L50.379 28.4416H63.0001L72.5626 46.7932L69.8555 49.9221ZM15.293 23.3791L21.4805 26.4729L12.8321 43.0315L6.64459 39.9377L15.293 23.3791ZM55.3711 64.6877L35.0157 59.5901L17.6485 46.0198L27.211 27.6682L44.3321 22.676L47.0391 23.9065L46.4063 24.4338L32.6602 38.2151C32.0855 38.7817 31.6403 39.466 31.3552 40.2211C31.0701 40.9761 30.9519 41.7839 31.0087 42.589C31.0655 43.394 31.2959 44.1773 31.6842 44.8848C32.0724 45.5923 32.6093 46.2074 33.2579 46.6877L35.1563 48.1291C37.595 49.944 40.5539 50.9242 43.5938 50.9242C46.6337 50.9242 49.5926 49.944 52.0313 48.1291L54.879 45.9846L65.9883 54.0705L55.3711 64.6877ZM83.3555 40.2893L77.168 43.4182L68.5196 26.8596L74.7071 23.7307L83.3555 40.2893ZM42.1172 75.5159C41.9617 76.1263 41.6082 76.6679 41.112 77.0559C40.6158 77.444 40.005 77.6566 39.3751 77.6604C39.1483 77.6596 38.923 77.6241 38.7071 77.5549L28.0899 74.9182C27.2287 74.7007 26.4328 74.2786 25.7696 73.6877L17.8594 66.7971C17.5824 66.557 17.3554 66.2648 17.1914 65.937C17.0273 65.6091 16.9294 65.2522 16.9033 64.8866C16.8772 64.521 16.9234 64.1538 17.0392 63.806C17.1549 63.4582 17.3381 63.1366 17.5782 62.8596C17.8183 62.5826 18.1105 62.3556 18.4383 62.1915C18.7661 62.0275 19.1231 61.9296 19.4887 61.9035C19.8543 61.8774 20.2215 61.9235 20.5693 62.0393C20.9171 62.1551 21.2387 62.3383 21.5157 62.5784L29.461 69.469L40.043 72.1057C40.7668 72.2888 41.3896 72.7487 41.7776 73.3866C42.1655 74.0244 42.2875 74.789 42.1172 75.5159Z" fill="white"/>
</svg>
