<svg width="90" height="90" viewBox="0 0 90 90" fill="none" xmlns="http://www.w3.org/2000/svg">
<path d="M81.5625 73.125C81.5625 73.8709 81.2662 74.5863 80.7387 75.1137C80.2113 75.6412 79.4959 75.9375 78.75 75.9375H11.25C10.5041 75.9375 9.78871 75.6412 9.26126 75.1137C8.73382 74.5863 8.4375 73.8709 8.4375 73.125V16.875C8.4375 16.1291 8.73382 15.4137 9.26126 14.8863C9.78871 14.3588 10.5041 14.0625 11.25 14.0625C11.9959 14.0625 12.7113 14.3588 13.2387 14.8863C13.7662 15.4137 14.0625 16.1291 14.0625 16.875V55.0898L31.7461 37.3711C32.2793 36.843 32.9995 36.5467 33.75 36.5467C34.5005 36.5467 35.2207 36.843 35.7539 37.3711L45 46.6523L66.3398 25.3125H59.0625C58.3166 25.3125 57.6012 25.0162 57.0738 24.4887C56.5463 23.9613 56.25 23.2459 56.25 22.5C56.25 21.7541 56.5463 21.0387 57.0738 20.5113C57.6012 19.9838 58.3166 19.6875 59.0625 19.6875H73.125C73.8709 19.6875 74.5863 19.9838 75.1137 20.5113C75.6412 21.0387 75.9375 21.7541 75.9375 22.5V36.5625C75.9375 37.3084 75.6412 38.0238 75.1137 38.5512C74.5863 39.0787 73.8709 39.375 73.125 39.375C72.3791 39.375 71.6637 39.0787 71.1363 38.5512C70.6088 38.0238 70.3125 37.3084 70.3125 36.5625V29.2852L47.0039 52.6289C46.4707 53.157 45.7505 53.4533 45 53.4533C44.2495 53.4533 43.5293 53.157 42.9961 52.6289L33.75 43.3477L14.0625 63.0352V70.3125H78.75C79.4959 70.3125 80.2113 70.6088 80.7387 71.1363C81.2662 71.6637 81.5625 72.3791 81.5625 73.125Z" fill="white"/>
</svg>
