<svg width="90" height="90" viewBox="0 0 90 90" fill="none" xmlns="http://www.w3.org/2000/svg">
<path d="M53.4375 78.75C53.4375 79.496 53.1412 80.2113 52.6137 80.7388C52.0863 81.2662 51.3709 81.5625 50.625 81.5625H39.375C38.629 81.5625 37.9137 81.2662 37.3862 80.7388C36.8588 80.2113 36.5625 79.496 36.5625 78.75C36.5625 78.0041 36.8588 77.2887 37.3862 76.7613C37.9137 76.2338 38.629 75.9375 39.375 75.9375H50.625C51.3709 75.9375 52.0863 76.2338 52.6137 76.7613C53.1412 77.2887 53.4375 78.0041 53.4375 78.75ZM45 37.9688C45.8344 37.9688 46.65 37.7214 47.3438 37.2578C48.0376 36.7942 48.5783 36.1354 48.8976 35.3645C49.2169 34.5936 49.3004 33.7454 49.1377 32.927C48.9749 32.1086 48.5731 31.3569 47.9831 30.7669C47.3931 30.1769 46.6414 29.7751 45.823 29.6123C45.0046 29.4496 44.1564 29.5331 43.3855 29.8524C42.6146 30.1717 41.9558 30.7125 41.4922 31.4062C41.0286 32.1 40.7812 32.9156 40.7812 33.75C40.7812 34.8689 41.2257 35.942 42.0169 36.7331C42.808 37.5243 43.8811 37.9688 45 37.9688ZM78.3984 55.4063L74.039 74.9532C73.8339 75.8856 73.3935 76.7499 72.7596 77.4638C72.1257 78.1777 71.3195 78.7173 70.4179 79.0313C69.8064 79.2386 69.1652 79.3455 68.5195 79.3477C67.254 79.3407 66.0277 78.9072 65.039 78.1172L55.2656 70.3125H34.7343L24.9609 78.1172C23.9722 78.9072 22.746 79.3407 21.4804 79.3477C20.8347 79.3455 20.1936 79.2386 19.582 79.0313C18.6804 78.7173 17.8742 78.1777 17.2404 77.4638C16.6065 76.7499 16.166 75.8856 15.9609 74.9532L11.6015 55.4063C11.4218 54.5654 11.4361 53.6946 11.6432 52.8601C11.8503 52.0256 12.2449 51.2492 12.7968 50.5899L23.2031 38.0743C23.513 33.7708 24.4731 29.5392 26.0508 25.5235C30.164 14.9063 37.4765 7.94534 41.4843 4.74612C42.4833 3.94623 43.7265 3.51332 45.0062 3.51972C46.2859 3.52612 47.5247 3.97144 48.5156 4.78128C52.4883 7.9805 59.6953 14.9414 63.7734 25.5586C65.293 29.4929 66.2401 33.6248 66.5859 37.8282L77.2031 50.5899C77.7551 51.2492 78.1496 52.0256 78.3567 52.8601C78.5638 53.6946 78.5781 54.5654 78.3984 55.4063V55.4063ZM35.4023 64.6875H54.5625C59.5547 55.1953 69.7148 29.2149 45 9.14065C38.3906 14.4141 18.5273 33.8555 35.4023 64.6875V64.6875ZM30.1289 66.7969C26.4726 59.9063 24.2343 53.1797 23.414 46.6172L17.1211 54.1758L21.4453 73.7227L30.1289 66.7969ZM72.8789 54.1758L66.4453 46.4414C65.6718 53.0508 63.4922 59.836 59.8359 66.7617L68.5547 73.7227L72.8789 54.1758Z" fill="white"/>
</svg>
