<svg width="256" height="256" viewBox="0 0 256 256" fill="none" xmlns="http://www.w3.org/2000/svg">
<path d="M96 248C94.714 247.987 93.4482 247.679 92.3 247.1C90.7768 246.278 89.5568 244.99 88.819 243.424C88.0812 241.859 87.8642 240.098 88.2 238.4L102.8 165.1L45.2 143.5C43.9693 143.022 42.8721 142.255 42.0016 141.262C41.1311 140.27 40.5131 139.082 40.2 137.8C39.8957 136.513 39.9194 135.17 40.2688 133.895C40.6182 132.619 41.2823 131.452 42.2 130.5L154.2 10.4998C155.395 9.27465 156.952 8.46526 158.642 8.19058C160.332 7.91591 162.065 8.19044 163.587 8.97384C165.109 9.75723 166.34 11.0082 167.098 12.5428C167.856 14.0775 168.102 15.8149 167.8 17.4998L153.2 90.8998L210.8 112.5C212.037 112.949 213.142 113.699 214.015 114.684C214.887 115.668 215.501 116.855 215.799 118.136C216.097 119.418 216.07 120.753 215.721 122.022C215.372 123.29 214.712 124.451 213.8 125.4L101.8 245.4C101.074 246.221 100.181 246.878 99.1808 247.326C98.1805 247.775 97.0961 248.004 96 248ZM62 132.7L114.8 152.5C116.572 153.155 118.05 154.422 118.967 156.073C119.885 157.725 120.18 159.65 119.8 161.5L109.4 213.9L194 123.3L141.2 103.5C139.408 102.843 137.914 101.559 136.995 99.8866C136.076 98.2138 135.793 96.2647 136.2 94.3998L146.6 41.9998L62 132.7Z" fill="#310062"/>
</svg>
