<svg width="152" height="48" viewBox="0 0 152 48" fill="none" xmlns="http://www.w3.org/2000/svg">
<path d="M14.9228 10.3395C15.3158 10.3395 15.6636 10.5912 15.7827 10.9618L21.6326 29.1552C21.7111 29.3995 21.6798 29.6655 21.5464 29.8854L19.293 33.6019C19.141 33.8527 19.1289 34.1631 19.2611 34.4247C19.4075 34.7146 19.7069 34.8977 20.0344 34.8977H40.933C41.3067 34.8977 41.6098 34.5978 41.6098 34.2279C41.6098 33.858 41.3067 33.5581 40.933 33.5581H22.4628C22.0725 33.5581 21.7561 33.245 21.7561 32.8588C21.7561 32.7321 21.791 32.6077 21.8568 32.499L22.874 30.8214C23.0222 30.577 23.2794 30.4173 23.5662 30.3915L42.2851 28.7075C42.6866 28.6714 43.0152 28.3762 43.0901 27.9842L45.9195 13.1846C46.0247 12.6346 45.5985 12.1256 45.0328 12.1256H18.8271C18.4241 12.1256 18.07 11.8613 17.9594 11.4779L17.4309 9.64769C17.3203 9.26432 16.9662 9 16.5632 9H10.3257C9.92353 9 9.61012 9.34477 9.65253 9.74041C9.68908 10.081 9.97948 10.3395 10.3257 10.3395H14.9228Z" fill="url(#paint0_linear_351_13984)"/>
<path d="M2.45123 14.3582C2.45123 13.865 2.85525 13.4651 3.35367 13.4651H12.3781C12.8765 13.4651 13.2805 13.865 13.2805 14.3582C13.2805 14.8514 12.8765 15.2512 12.3781 15.2512H3.35367C2.85525 15.2512 2.45123 14.8514 2.45123 14.3582Z" fill="url(#paint1_linear_351_13984)"/>
<path d="M8.31711 19.2697C7.81869 19.2697 7.41467 19.6695 7.41467 20.1627C7.41467 20.656 7.81869 21.0558 8.31711 21.0558H13.2805C13.7789 21.0558 14.183 20.656 14.183 20.1627C14.183 19.6695 13.7789 19.2697 13.2805 19.2697H8.31711Z" fill="url(#paint2_linear_351_13984)"/>
<path d="M2.90244 24.6279C2.40402 24.6279 2 25.0277 2 25.521C2 26.0142 2.40402 26.414 2.90244 26.414H14.1829C14.6813 26.414 15.0854 26.0142 15.0854 25.521C15.0854 25.0277 14.6813 24.6279 14.1829 24.6279H2.90244Z" fill="url(#paint3_linear_351_13984)"/>
<path d="M8.99391 29.093C8.62012 29.093 8.31708 29.3929 8.31708 29.7628C8.31708 30.1327 8.62012 30.4326 8.99391 30.4326H14.8598C15.2336 30.4326 15.5366 30.1327 15.5366 29.7628C15.5366 29.3929 15.2336 29.093 14.8598 29.093H8.99391Z" fill="url(#paint4_linear_351_13984)"/>
<path d="M27.1707 37.1302C27.1707 35.404 25.7566 34.0046 24.0122 34.0046C22.2678 34.0046 20.8536 35.404 20.8536 37.1302C20.8536 38.8564 22.2678 40.2558 24.0122 40.2558C25.7566 40.2558 27.1707 38.8564 27.1707 37.1302Z" fill="#FD53A3"/>
<path d="M44.3171 37.1302C44.3171 35.404 42.9029 34.0046 41.1585 34.0046C39.4141 34.0046 38 35.404 38 37.1302C38 38.8564 39.4141 40.2558 41.1585 40.2558C42.9029 40.2558 44.3171 38.8564 44.3171 37.1302Z" fill="#FC68AD"/>
<path d="M56 8.87219H63.4857C65.4229 8.87219 66.8759 9.40354 67.8445 10.4662C68.8131 11.5289 69.3079 13.1021 69.329 15.1859L69.3922 27.7507C69.4132 30.3971 68.95 32.3869 68.0024 33.7206C67.0549 35.0542 65.4861 35.7209 63.2962 35.7209H56V8.87219ZM62.4118 30.9701C63.4015 30.9701 63.8963 30.4908 63.8963 29.5323V15.686C63.8963 15.0817 63.8437 14.6336 63.7384 14.342C63.6542 14.0294 63.4857 13.821 63.2331 13.7168C62.9804 13.6127 62.5907 13.5606 62.0644 13.5606H61.4643V30.9701H62.4118ZM70.8502 35.7209L73.4718 8.87219H82.6631L85.2531 35.7209H80.1047L79.7257 31.3764H76.4408L76.125 35.7209H70.8502ZM76.8514 27.0943H79.3151L78.1148 13.4355H77.8622L76.8514 27.0943ZM89.2444 35.7209V14.0294H86.0223V8.87219H97.8988V14.0294H94.6771V35.7209H89.2444ZM98.7031 35.7209L101.325 8.87219H110.516L113.106 35.7209H107.958L107.579 31.3764H104.294L103.978 35.7209H98.7031ZM104.704 27.0943H107.168L105.968 13.4355H105.715L104.704 27.0943ZM114.76 35.7209V8.87219H123.035L125.309 25.2502L127.583 8.87219H135.922V35.7209H130.963V16.3736L127.836 35.7209H122.972L119.655 16.3736V35.7209H114.76ZM138.326 8.87219H145.496C147.664 8.87219 149.211 9.57024 150.139 10.9663C151.065 12.3416 151.528 14.3628 151.528 17.03C151.528 19.6971 151.118 21.708 150.297 23.0623C149.475 24.4167 148.001 25.094 145.875 25.094H143.664V35.7209H138.326V8.87219ZM143.98 20.2493C144.632 20.2493 145.105 20.1347 145.401 19.9055C145.717 19.6555 145.916 19.3116 146.001 18.8741C146.106 18.4156 146.159 17.7697 146.159 16.9362C146.159 15.811 146.033 14.9983 145.78 14.4982C145.527 13.9981 145.022 13.7481 144.264 13.7481H143.664V20.2493H143.98Z" fill="black"/>
<path d="M60.588 38.9581V41.3023H60.3477V39.427L59.417 41.0043H59.2986L58.368 39.437V41.3023H58.1277V38.9581H58.3341L59.3629 40.6962L60.3815 38.9581H60.588ZM63.8607 40.6761H62.5408L62.2566 41.3023H61.996L63.0789 38.9581H63.326L64.4089 41.3023H64.1449L63.8607 40.6761ZM63.7693 40.4752L63.2007 39.216L62.6322 40.4752H63.7693ZM67.4336 41.3023L66.8922 40.5488C66.8313 40.5555 66.7681 40.5589 66.7027 40.5589H66.0664V41.3023H65.816V38.9581H66.7027C67.005 38.9581 67.2419 39.0296 67.4133 39.1725C67.5848 39.3154 67.6705 39.5118 67.6705 39.7619C67.6705 39.9449 67.6231 40.1001 67.5284 40.2274C67.4359 40.3524 67.3028 40.4428 67.1291 40.4986L67.7078 41.3023H67.4336ZM66.6959 40.3479C66.9305 40.3479 67.1099 40.2966 67.234 40.1939C67.3581 40.0912 67.4201 39.9472 67.4201 39.7619C67.4201 39.5721 67.3581 39.427 67.234 39.3265C67.1099 39.2238 66.9305 39.1725 66.6959 39.1725H66.0664V40.3479H66.6959ZM70.0111 40.2006L69.5272 40.6861V41.3023H69.2768V38.9581H69.5272V40.3747L70.9181 38.9581H71.2057L70.1803 40.0197L71.2768 41.3023H70.979L70.0111 40.2006ZM74.3732 41.088V41.3023H72.698V38.9581H74.3224V39.1725H72.9484V40.0063H74.1735V40.2173H72.9484V41.088H74.3732ZM76.4373 39.1725H75.6048V38.9581H77.5202V39.1725H76.6877V41.3023H76.4373V39.1725ZM79.8222 38.9581C80.1245 38.9581 80.3614 39.0296 80.5329 39.1725C80.7043 39.3154 80.7901 39.5118 80.7901 39.7619C80.7901 40.0119 80.7043 40.2084 80.5329 40.3513C80.3614 40.4919 80.1245 40.5622 79.8222 40.5622H79.186V41.3023H78.9356V38.9581H79.8222ZM79.8154 40.3446C80.0501 40.3446 80.2294 40.2943 80.3535 40.1939C80.4776 40.0912 80.5396 39.9472 80.5396 39.7619C80.5396 39.5721 80.4776 39.427 80.3535 39.3265C80.2294 39.2238 80.0501 39.1725 79.8154 39.1725H79.186V40.3446H79.8154ZM82.3468 38.9581H82.5972V41.088H83.9238V41.3023H82.3468V38.9581ZM86.847 40.6761H85.5272L85.2429 41.3023H84.9823L86.0653 38.9581H86.3123L87.3956 41.3023H87.1316L86.847 40.6761ZM86.7556 40.4752L86.1871 39.216L85.6186 40.4752H86.7556ZM89.7983 41.3224C89.5637 41.3224 89.3516 41.2711 89.1621 41.1684C88.9748 41.0657 88.8271 40.9239 88.7188 40.7431C88.6127 40.56 88.5597 40.3557 88.5597 40.1302C88.5597 39.9047 88.6127 39.7016 88.7188 39.5207C88.8271 39.3377 88.976 39.1948 89.1655 39.0921C89.355 38.9894 89.5671 38.938 89.8017 38.938C89.9777 38.938 90.1401 38.9671 90.289 39.0251C90.4379 39.0832 90.5643 39.168 90.6681 39.2796L90.509 39.437C90.324 39.2517 90.0905 39.1591 89.8085 39.1591C89.6212 39.1591 89.4509 39.2015 89.2975 39.2863C89.1441 39.3712 89.0234 39.4873 88.9354 39.6346C88.8496 39.782 88.8068 39.9472 88.8068 40.1302C88.8068 40.3133 88.8496 40.4785 88.9354 40.6259C89.0234 40.7732 89.1441 40.8893 89.2975 40.9741C89.4509 41.059 89.6212 41.1014 89.8085 41.1014C90.0927 41.1014 90.3262 41.0076 90.509 40.8201L90.6681 40.9775C90.5643 41.0891 90.4368 41.1751 90.2856 41.2354C90.1367 41.2934 89.9743 41.3224 89.7983 41.3224ZM93.892 41.088V41.3023H92.2169V38.9581H93.8413V39.1725H92.4673V40.0063H93.6924V40.2173H92.4673V41.088H93.892ZM99.2976 38.9581H100.262C100.513 38.9581 100.734 39.0084 100.925 39.1088C101.117 39.2071 101.266 39.3455 101.372 39.5241C101.478 39.7005 101.531 39.9025 101.531 40.1302C101.531 40.358 101.478 40.5611 101.372 40.7397C101.266 40.9161 101.117 41.0545 100.925 41.155C100.734 41.2532 100.513 41.3023 100.262 41.3023H99.2976V38.9581ZM100.249 41.088C100.456 41.088 100.638 41.0478 100.793 40.9674C100.949 40.8848 101.07 40.7721 101.156 40.6292C101.241 40.4841 101.284 40.3178 101.284 40.1302C101.284 39.9427 101.241 39.7775 101.156 39.6346C101.07 39.4895 100.949 39.3767 100.793 39.2964C100.638 39.2138 100.456 39.1725 100.249 39.1725H99.548V41.088H100.249ZM104.561 40.6761H103.241L102.957 41.3023H102.696L103.779 38.9581H104.026L105.109 41.3023H104.845L104.561 40.6761ZM104.47 40.4752L103.901 39.216L103.333 40.4752H104.47ZM106.858 39.1725H106.025V38.9581H107.941V39.1725H107.108V41.3023H106.858V39.1725ZM110.724 40.6761H109.404L109.12 41.3023H108.859L109.942 38.9581H110.189L111.272 41.3023H111.008L110.724 40.6761ZM110.632 40.4752L110.064 39.216L109.495 40.4752H110.632ZM118.098 41.3023L117.556 40.5488C117.495 40.5555 117.432 40.5589 117.367 40.5589H116.73V41.3023H116.48V38.9581H117.367C117.669 38.9581 117.906 39.0296 118.077 39.1725C118.249 39.3154 118.335 39.5118 118.335 39.7619C118.335 39.9449 118.287 40.1001 118.192 40.2274C118.1 40.3524 117.967 40.4428 117.793 40.4986L118.372 41.3023H118.098ZM117.36 40.3479C117.595 40.3479 117.774 40.2966 117.898 40.1939C118.022 40.0912 118.084 39.9472 118.084 39.7619C118.084 39.5721 118.022 39.427 117.898 39.3265C117.774 39.2238 117.595 39.1725 117.36 39.1725H116.73V40.3479H117.36ZM121.616 41.088V41.3023H119.941V38.9581H121.565V39.1725H120.191V40.0063H121.416V40.2173H120.191V41.088H121.616ZM123.873 41.3224C123.697 41.3224 123.528 41.2945 123.366 41.2387C123.205 41.1829 123.081 41.1092 122.993 41.0177L123.092 40.8268C123.177 40.9116 123.291 40.9808 123.433 41.0344C123.575 41.0858 123.722 41.1114 123.873 41.1114C124.085 41.1114 124.244 41.0735 124.35 40.9976C124.456 40.9194 124.51 40.819 124.51 40.6962C124.51 40.6024 124.48 40.5276 124.422 40.4718C124.365 40.416 124.295 40.3736 124.212 40.3446C124.128 40.3133 124.012 40.2798 123.863 40.2441C123.685 40.1994 123.543 40.157 123.437 40.1168C123.331 40.0744 123.239 40.0108 123.163 39.926C123.088 39.8411 123.051 39.7261 123.051 39.581C123.051 39.4627 123.083 39.3555 123.146 39.2595C123.209 39.1613 123.306 39.0832 123.437 39.0251C123.568 38.9671 123.73 38.938 123.924 38.938C124.059 38.938 124.191 38.957 124.32 38.995C124.451 39.0307 124.564 39.0809 124.658 39.1457L124.574 39.3433C124.475 39.2785 124.368 39.2305 124.256 39.1993C124.143 39.1658 124.032 39.149 123.924 39.149C123.716 39.149 123.56 39.1892 123.454 39.2696C123.35 39.3477 123.298 39.4493 123.298 39.5743C123.298 39.6681 123.326 39.744 123.383 39.802C123.441 39.8579 123.513 39.9014 123.599 39.9327C123.687 39.9617 123.804 39.9941 123.951 40.0298C124.125 40.0722 124.265 40.1146 124.371 40.157C124.479 40.1972 124.57 40.2597 124.645 40.3446C124.719 40.4272 124.757 40.5399 124.757 40.6828C124.757 40.8011 124.724 40.9094 124.658 41.0076C124.595 41.1036 124.497 41.1807 124.364 41.2387C124.231 41.2945 124.067 41.3224 123.873 41.3224ZM127.993 41.088V41.3023H126.318V38.9581H127.942V39.1725H126.568V40.0063H127.793V40.2173H126.568V41.088H127.993ZM131.083 40.6761H129.763L129.479 41.3023H129.218L130.301 38.9581H130.548L131.631 41.3023H131.367L131.083 40.6761ZM130.991 40.4752L130.423 39.216L129.854 40.4752H130.991ZM134.655 41.3023L134.114 40.5488C134.053 40.5555 133.99 40.5589 133.924 40.5589H133.288V41.3023H133.038V38.9581H133.924C134.227 38.9581 134.463 39.0296 134.635 39.1725C134.806 39.3154 134.892 39.5118 134.892 39.7619C134.892 39.9449 134.845 40.1001 134.75 40.2274C134.657 40.3524 134.524 40.4428 134.351 40.4986L134.929 41.3023H134.655ZM133.917 40.3479C134.152 40.3479 134.331 40.2966 134.456 40.1939C134.58 40.0912 134.642 39.9472 134.642 39.7619C134.642 39.5721 134.58 39.427 134.456 39.3265C134.331 39.2238 134.152 39.1725 133.917 39.1725H133.288V40.3479H133.917ZM137.527 41.3224C137.293 41.3224 137.08 41.2711 136.891 41.1684C136.704 41.0657 136.556 40.9239 136.448 40.7431C136.342 40.56 136.289 40.3557 136.289 40.1302C136.289 39.9047 136.342 39.7016 136.448 39.5207C136.556 39.3377 136.705 39.1948 136.894 39.0921C137.084 38.9894 137.296 38.938 137.531 38.938C137.707 38.938 137.869 38.9671 138.018 39.0251C138.167 39.0832 138.293 39.168 138.397 39.2796L138.238 39.437C138.053 39.2517 137.819 39.1591 137.537 39.1591C137.35 39.1591 137.18 39.2015 137.026 39.2863C136.873 39.3712 136.752 39.4873 136.664 39.6346C136.578 39.782 136.536 39.9472 136.536 40.1302C136.536 40.3133 136.578 40.4785 136.664 40.6259C136.752 40.7732 136.873 40.8893 137.026 40.9741C137.18 41.059 137.35 41.1014 137.537 41.1014C137.822 41.1014 138.055 41.0076 138.238 40.8201L138.397 40.9775C138.293 41.0891 138.166 41.1751 138.015 41.2354C137.866 41.2934 137.703 41.3224 137.527 41.3224ZM141.925 38.9581V41.3023H141.678V40.2207H140.196V41.3023H139.946V38.9581H140.196V40.003H141.678V38.9581H141.925Z" fill="url(#paint5_linear_351_13984)"/>
<defs>
<linearGradient id="paint0_linear_351_13984" x1="74.0976" y1="31.7721" x2="16.3422" y2="30.4042" gradientUnits="userSpaceOnUse">
<stop stop-color="#F8C1DB"/>
<stop offset="1" stop-color="#FF2A8E"/>
</linearGradient>
<linearGradient id="paint1_linear_351_13984" x1="4.25611" y1="31.7721" x2="17.3415" y2="31.7721" gradientUnits="userSpaceOnUse">
<stop stop-color="#FF0091"/>
<stop offset="1" stop-color="#FFCEEA"/>
</linearGradient>
<linearGradient id="paint2_linear_351_13984" x1="4.25614" y1="31.772" x2="17.3415" y2="31.772" gradientUnits="userSpaceOnUse">
<stop stop-color="#FF0091"/>
<stop offset="1" stop-color="#FFCEEA"/>
</linearGradient>
<linearGradient id="paint3_linear_351_13984" x1="4.2561" y1="31.7721" x2="17.3415" y2="31.7721" gradientUnits="userSpaceOnUse">
<stop stop-color="#FF0091"/>
<stop offset="1" stop-color="#FFCEEA"/>
</linearGradient>
<linearGradient id="paint4_linear_351_13984" x1="4.2561" y1="31.7721" x2="17.3415" y2="31.7721" gradientUnits="userSpaceOnUse">
<stop stop-color="#FF0091"/>
<stop offset="1" stop-color="#FFCEEA"/>
</linearGradient>
<linearGradient id="paint5_linear_351_13984" x1="58.3215" y1="42.4186" x2="145.904" y2="42.4186" gradientUnits="userSpaceOnUse">
<stop stop-color="#FF0091"/>
<stop offset="1" stop-color="#FFA4D8"/>
</linearGradient>
</defs>
</svg>
