<svg width="256" height="256" viewBox="0 0 256 256" fill="none" xmlns="http://www.w3.org/2000/svg">
<path d="M187.8 125.3C184.816 128.667 181.152 131.363 177.049 133.209C172.947 135.055 168.499 136.01 164 136.01C159.501 136.01 155.053 135.055 150.951 133.209C146.848 131.363 143.184 128.667 140.2 125.3C139.497 124.519 138.955 123.606 138.605 122.616C138.255 121.625 138.103 120.575 138.159 119.525C138.215 118.476 138.477 117.448 138.93 116.5C139.383 115.552 140.018 114.702 140.8 114C141.588 113.303 142.505 112.768 143.499 112.427C144.494 112.085 145.546 111.942 146.595 112.007C147.645 112.072 148.671 112.343 149.616 112.805C150.56 113.268 151.404 113.911 152.1 114.7C153.6 116.369 155.435 117.704 157.486 118.618C159.536 119.532 161.755 120.004 164 120.004C166.245 120.004 168.464 119.532 170.514 118.618C172.565 117.704 174.4 116.369 175.9 114.7C176.596 113.911 177.44 113.268 178.384 112.805C179.329 112.343 180.355 112.072 181.405 112.007C182.454 111.942 183.506 112.085 184.501 112.427C185.495 112.768 186.412 113.303 187.2 114C187.982 114.702 188.617 115.552 189.07 116.5C189.523 117.448 189.785 118.476 189.841 119.525C189.897 120.575 189.745 121.625 189.395 122.616C189.045 123.606 188.503 124.519 187.8 125.3ZM115.8 125.3C116.503 124.519 117.045 123.606 117.395 122.616C117.745 121.625 117.897 120.575 117.841 119.525C117.785 118.476 117.523 117.448 117.07 116.5C116.617 115.552 115.982 114.702 115.2 114C114.412 113.303 113.495 112.768 112.501 112.427C111.506 112.085 110.454 111.942 109.405 112.007C108.355 112.072 107.329 112.343 106.384 112.805C105.44 113.268 104.596 113.911 103.9 114.7C102.4 116.369 100.565 117.704 98.5144 118.618C96.4642 119.532 94.2447 120.004 92 120.004C89.7553 120.004 87.5358 119.532 85.4856 118.618C83.4354 117.704 81.6005 116.369 80.1 114.7C79.4044 113.911 78.5602 113.268 77.6156 112.805C76.671 112.343 75.6446 112.072 74.5951 112.007C73.5456 111.942 72.4936 112.085 71.4992 112.427C70.5048 112.768 69.5876 113.303 68.8 114C68.0185 114.702 67.383 115.552 66.9298 116.5C66.4767 117.448 66.2148 118.476 66.159 119.525C66.1033 120.575 66.2549 121.625 66.6051 122.616C66.9553 123.606 67.4972 124.519 68.2 125.3C71.1838 128.667 74.848 131.363 78.9507 133.209C83.0534 135.055 87.5011 136.01 92 136.01C96.4989 136.01 100.947 135.055 105.049 133.209C109.152 131.363 112.816 128.667 115.8 125.3ZM159 177.3C149.8 171.231 139.021 167.996 128 167.996C116.979 167.996 106.2 171.231 97 177.3C95.2571 178.497 94.0514 180.328 93.6403 182.402C93.2292 184.476 93.6454 186.628 94.8 188.4C95.3764 189.281 96.1212 190.04 96.9916 190.633C97.8621 191.226 98.841 191.641 99.8723 191.855C100.904 192.069 101.967 192.077 103.001 191.878C104.036 191.68 105.021 191.28 105.9 190.7C112.443 186.331 120.133 184 128 184C135.867 184 143.557 186.331 150.1 190.7C151.883 191.845 154.044 192.245 156.119 191.815C158.194 191.385 160.018 190.159 161.2 188.4C162.355 186.628 162.771 184.476 162.36 182.402C161.949 180.328 160.743 178.497 159 177.3ZM224 48.2998V104C224 139.8 214.3 173.5 196.8 199C179.3 224.5 154.2 240 128 240C101.8 240 77.3 225.5 59.2 199C41.1 172.5 32 139.8 32 104V48.2998C32.0019 45.699 32.6378 43.1379 33.8526 40.8382C35.0673 38.5386 36.8244 36.5697 38.9716 35.1022C41.1187 33.6346 43.5913 32.7126 46.1751 32.4159C48.7589 32.1193 51.3761 32.457 53.8 33.3998C67.8 38.8998 96.2 47.9998 128 47.9998C159.8 47.9998 188.2 38.8998 202.2 33.3998C204.624 32.457 207.241 32.1193 209.825 32.4159C212.409 32.7126 214.881 33.6346 217.028 35.1022C219.176 36.5697 220.933 38.5386 222.147 40.8382C223.362 43.1379 223.998 45.699 224 48.2998ZM208 48.2998C192.9 54.1998 162.4 63.9998 128 63.9998C93.6 63.9998 63.1 54.1998 48 48.2998V104C48 136.6 56.7 167.1 72.4 190C88.1 212.9 107.2 224 128 224C148.8 224 168.5 211.9 183.6 190C198.7 168.1 208 136.6 208 104V48.2998Z" fill="#310062"/>
</svg>
