<svg width="94" height="68" viewBox="0 0 94 68" fill="none" xmlns="http://www.w3.org/2000/svg">
<path d="M56.6884 16.1794H37.2601V51.8204H56.6884V16.1794Z" fill="#AEAEAE"/>
<path d="M38.4938 34C38.4907 30.5675 39.2526 27.1793 40.7219 24.0919C42.1912 21.0044 44.3293 18.2987 46.9743 16.1795C43.6988 13.5512 39.765 11.9167 35.6225 11.4628C31.4801 11.0089 27.2961 11.754 23.5489 13.6128C19.8016 15.4716 16.6422 18.3692 14.4318 21.9744C12.2215 25.5796 11.0493 29.7469 11.0493 34C11.0493 38.2531 12.2215 42.4204 14.4318 46.0256C16.6422 49.6308 19.8016 52.5284 23.5489 54.3872C27.2961 56.246 31.4801 56.9911 35.6225 56.5372C39.765 56.0833 43.6988 54.4488 46.9743 51.8205C44.3293 49.7013 42.1912 46.9956 40.7219 43.9081C39.2527 40.8207 38.4907 37.4325 38.4938 34Z" fill="#888888"/>
<path d="M82.8982 34C82.8983 38.253 81.7263 42.4203 79.516 46.0255C77.3058 49.6307 74.1465 52.5283 70.3993 54.3871C66.6521 56.246 62.4682 56.9911 58.3258 56.5372C54.1834 56.0833 50.2497 54.4488 46.9743 51.8205C49.617 49.6992 51.7534 46.993 53.2224 43.906C54.6915 40.8191 55.4548 37.4319 55.4548 34C55.4548 30.5681 54.6915 27.1809 53.2224 24.094C51.7534 21.007 49.617 18.3008 46.9743 16.1795C50.2497 13.5512 54.1834 11.9167 58.3258 11.4628C62.4682 11.0089 66.6521 11.754 70.3993 13.6129C74.1465 15.4717 77.3058 18.3693 79.516 21.9745C81.7263 25.5797 82.8983 29.747 82.8982 34Z" fill="#AEAEAE"/>
<path d="M80.7798 48.0456V47.3159H81.068V47.1672H80.334V47.3159H80.6223V48.0456H80.7798ZM82.2048 48.0456V47.1658H81.9798L81.7211 47.7709L81.4622 47.1658H81.2371V48.0456H81.3959V47.3819L81.6386 47.9541H81.8034L82.0461 47.3805V48.0456H82.2048Z" fill="#AEAEAE"/>
</svg>
