<svg width="86" height="55" viewBox="0 0 86 55" fill="none" xmlns="http://www.w3.org/2000/svg">
<g clip-path="url(#clip0_351_14008)">
<path d="M81.6779 0H4.60872C2.06179 0 0 2.101 0 4.686V50.479C0 53.064 2.06179 55.165 4.59769 55.165H81.6669C84.2028 55.165 86.2646 53.064 86.2646 50.479V4.686C86.2756 2.101 84.2138 0 81.6779 0ZM32.0956 38.225H25.4803V25.685C25.4803 25.443 25.2818 25.245 25.0392 25.245C24.8187 25.245 24.6423 25.399 24.6092 25.608L20.7392 38.225H15.9872L12.1282 25.597C12.0951 25.399 11.9187 25.245 11.6982 25.245C11.4556 25.245 11.2572 25.443 11.2572 25.685V38.225H4.64179V16.665H10.32H12.0179C13.2308 16.665 14.5097 17.611 14.8626 18.766L18.0821 29.271C18.2474 29.799 18.501 29.788 18.6664 29.271L21.8859 18.766C22.2387 17.6 23.5177 16.665 24.7305 16.665H26.4174H32.0956V38.225ZM56.6828 38.225H50.0674V25.41C50.0564 25.201 49.891 25.025 49.6705 25.025C49.5162 25.025 49.3949 25.102 49.3287 25.234V25.245C49.3287 25.256 49.3177 25.267 49.3177 25.278L43.9151 36.839C43.5733 37.587 42.6472 38.192 41.8092 38.236H35.1938V16.676H41.8092V29.216C41.8092 29.458 42.0077 29.656 42.2503 29.656C42.4046 29.656 42.5369 29.579 42.6141 29.469C42.6362 29.425 42.6582 29.392 42.6692 29.337L47.9285 18.073C48.2813 17.314 49.2295 16.709 50.0674 16.676H56.6828V38.225ZM74.1033 31.295H66.6059V38.335H59.9905V26.455H80.9503C79.9359 29.26 77.2567 31.273 74.1033 31.295ZM81.2259 25.355C81.2259 25.355 69.7372 25.355 69.7262 25.355C64.1031 25.355 59.4944 21.516 59.1085 16.665H74.0813C78.1056 16.698 81.3582 19.954 81.3582 23.98C81.3582 24.453 81.3141 24.915 81.2259 25.355Z" fill="#AEAEAE"/>
</g>
<defs>
<clipPath id="clip0_351_14008">
<rect width="86" height="55" fill="white"/>
</clipPath>
</defs>
</svg>
