<svg width="90" height="90" viewBox="0 0 90 90" fill="none" xmlns="http://www.w3.org/2000/svg">
<path d="M81.1758 60.4688C81.5465 61.1126 81.6473 61.877 81.4563 62.595C81.2652 63.313 80.7979 63.9262 80.1563 64.3008L46.4063 83.9883C45.9812 84.2422 45.4952 84.3763 45 84.3763C44.5048 84.3763 44.0189 84.2422 43.5938 83.9883L9.84377 64.3008C9.26091 63.899 8.85099 63.2922 8.69584 62.6015C8.54069 61.9108 8.65171 61.187 9.00676 60.5746C9.3618 59.9621 9.93474 59.5061 10.6112 59.2975C11.2877 59.0889 12.018 59.1431 12.6563 59.4492L45 78.293L77.3438 59.4492C77.9877 59.0786 78.7521 58.9777 79.47 59.1688C80.188 59.3598 80.8012 59.8271 81.1758 60.4688ZM77.3438 42.5742L45 61.418L12.6563 42.5742C12.018 42.2681 11.2877 42.2139 10.6112 42.4225C9.93474 42.6311 9.3618 43.0871 9.00676 43.6996C8.65171 44.312 8.54069 45.0358 8.69584 45.7265C8.85099 46.4172 9.26091 47.024 9.84377 47.4258L43.5938 67.1133C44.0189 67.3672 44.5048 67.5013 45 67.5013C45.4952 67.5013 45.9812 67.3672 46.4063 67.1133L80.1563 47.4258C80.506 47.258 80.8172 47.0198 81.0704 46.726C81.3236 46.4322 81.5133 46.0893 81.6276 45.7186C81.7419 45.348 81.7783 44.9577 81.7345 44.5724C81.6907 44.187 81.5677 43.8149 81.3732 43.4793C81.1787 43.1438 80.9168 42.8521 80.6042 42.6226C80.2915 42.3931 79.9348 42.2308 79.5564 42.1458C79.178 42.0608 78.7861 42.0549 78.4053 42.1287C78.0245 42.2024 77.6631 42.3541 77.3438 42.5742ZM8.43752 28.125C8.43566 27.6323 8.56493 27.1479 8.81205 26.7216C9.05918 26.2953 9.41526 25.9425 9.84377 25.6992L43.5938 6.01172C44.0176 5.75406 44.504 5.6178 45 5.6178C45.496 5.6178 45.9825 5.75406 46.4063 6.01172L80.1563 25.6992C80.5792 25.9474 80.9299 26.3018 81.1736 26.7273C81.4173 27.1528 81.5455 27.6346 81.5455 28.125C81.5455 28.6154 81.4173 29.0972 81.1736 29.5227C80.9299 29.9482 80.5792 30.3026 80.1563 30.5508L46.4063 50.2383C45.9812 50.4922 45.4952 50.6263 45 50.6263C44.5048 50.6263 44.0189 50.4922 43.5938 50.2383L9.84377 30.5508C9.41526 30.3075 9.05918 29.9547 8.81205 29.5284C8.56493 29.1021 8.43566 28.6177 8.43752 28.125ZM16.8399 28.125L45 44.543L73.1602 28.125L45 11.707L16.8399 28.125Z" fill="white"/>
</svg>
