<svg width="90" height="90" viewBox="0 0 90 90" fill="none" xmlns="http://www.w3.org/2000/svg">
<path d="M61.8749 56.25C59.9991 56.247 58.142 56.6221 56.4144 57.353C54.6868 58.0839 53.1243 59.1556 51.8203 60.5039L35.6132 50.0976C36.8784 46.817 36.8784 43.183 35.6132 39.9023L51.8203 29.4961C54.1002 31.8278 57.1198 33.2947 60.362 33.6455C63.6043 33.9964 66.8677 33.2094 69.5937 31.4194C72.3197 29.6294 74.3388 26.9475 75.3055 23.8329C76.2721 20.7182 76.1262 17.3645 74.8927 14.3456C73.6591 11.3267 71.4147 8.83034 68.5435 7.28385C65.6723 5.73736 62.3529 5.23686 59.1534 5.86801C55.9538 6.49916 53.0731 8.22272 51.0043 10.7437C48.9355 13.2647 47.8071 16.4263 47.8124 19.6875C47.8181 21.4301 48.1397 23.1573 48.7617 24.7852L32.5546 35.1914C30.6034 33.1868 28.0986 31.8097 25.3606 31.2362C22.6225 30.6627 19.7756 30.9188 17.184 31.9719C14.5923 33.025 12.3736 34.8271 10.8115 37.1479C9.24952 39.4686 8.41516 42.2025 8.41516 45C8.41516 47.7975 9.24952 50.5314 10.8115 52.8521C12.3736 55.1729 14.5923 56.975 17.184 58.0281C19.7756 59.0811 22.6225 59.3373 25.3606 58.7638C28.0986 58.1903 30.6034 56.8132 32.5546 54.8086L48.7617 65.2148C48.1397 66.8427 47.8181 68.5699 47.8124 70.3125C47.8124 73.0938 48.6372 75.8126 50.1824 78.1252C51.7276 80.4378 53.9239 82.2402 56.4935 83.3046C59.063 84.3689 61.8905 84.6474 64.6184 84.1048C67.3463 83.5622 69.852 82.2229 71.8186 80.2562C73.7853 78.2895 75.1246 75.7838 75.6672 73.056C76.2098 70.3281 75.9314 67.5006 74.867 64.931C73.8026 62.3614 72.0002 60.1652 69.6877 58.6199C67.3751 57.0747 64.6562 56.25 61.8749 56.25ZM61.8749 11.25C63.5437 11.25 65.175 11.7448 66.5626 12.672C67.9501 13.5991 69.0316 14.9169 69.6702 16.4586C70.3088 18.0004 70.4759 19.6969 70.1503 21.3336C69.8248 22.9703 69.0212 24.4737 67.8412 25.6537C66.6612 26.8337 65.1577 27.6373 63.521 27.9629C61.8843 28.2884 60.1878 28.1213 58.6461 27.4827C57.1043 26.8441 55.7865 25.7627 54.8594 24.3751C53.9323 22.9876 53.4374 21.3563 53.4374 19.6875C53.4467 17.4526 54.3386 15.3118 55.919 13.7315C57.4993 12.1512 59.64 11.2593 61.8749 11.25ZM22.4999 53.4375C20.8312 53.4375 19.1999 52.9426 17.8123 52.0155C16.4248 51.0884 15.3433 49.7706 14.7047 48.2289C14.0661 46.6871 13.899 44.9906 14.2246 43.3539C14.5501 41.7172 15.3537 40.2138 16.5337 39.0338C17.7137 37.8538 19.2172 37.0502 20.8539 36.7246C22.4906 36.3991 24.1871 36.5661 25.7288 37.2048C27.2706 37.8434 28.5883 38.9248 29.5155 40.3124C30.4426 41.6999 30.9374 43.3312 30.9374 45C30.9282 47.2349 30.0363 49.3756 28.4559 50.956C26.8756 52.5363 24.7349 53.4282 22.4999 53.4375ZM61.8749 78.75C60.2062 78.75 58.5749 78.2551 57.1873 77.328C55.7998 76.4009 54.7183 75.0831 54.0797 73.5414C53.4411 71.9996 53.274 70.3031 53.5996 68.6664C53.9251 67.0297 54.7287 65.5263 55.9087 64.3463C57.0887 63.1663 58.5922 62.3627 60.2289 62.0371C61.8656 61.7116 63.5621 61.8786 65.1038 62.5173C66.6456 63.1559 67.9633 64.2373 68.8905 65.6249C69.8176 67.0124 70.3124 68.6437 70.3124 70.3125C70.3032 72.5474 69.4113 74.6881 67.8309 76.2685C66.2506 77.8488 64.1099 78.7407 61.8749 78.75Z" fill="white"/>
</svg>
