<svg width="46" height="46" viewBox="0 0 46 46" fill="none" xmlns="http://www.w3.org/2000/svg">
<path d="M23 0C10.2983 0 0 10.2983 0 23C0 35.7017 10.2983 46 23 46C35.7017 46 46 35.7017 46 23C46 10.2983 35.7017 0 23 0ZM34.2968 15.7569L30.521 33.5436C30.2431 34.8047 29.4917 35.1114 28.4433 34.5173L22.6933 30.2814L19.9218 32.9533C19.6535 33.2983 19.2376 33.5187 18.7718 33.5187C18.768 33.5187 18.7661 33.5187 18.7622 33.5187L19.1705 27.6652L29.8272 18.0397C30.2872 17.6314 29.7237 17.3995 29.1122 17.8078L15.9467 26.0992L10.2733 24.3282C9.04667 23.9392 9.01217 23.1016 10.5321 22.4998L32.7003 13.9552C33.7314 13.5796 34.6284 14.2006 34.2949 15.7588L34.2968 15.7569Z" fill="white"/>
</svg>
