<svg width="75" height="25" viewBox="0 0 75 25" fill="none" xmlns="http://www.w3.org/2000/svg">
<path d="M32.5198 24.2457H26.408L30.2278 0.770541H36.3402L32.5198 24.2457ZM21.2663 0.770541L15.4396 16.9169L14.7502 13.44L14.7508 13.4412L12.6943 2.88421C12.6943 2.88421 12.4456 0.770541 9.79503 0.770541H0.162347L0.0493164 1.16803C0.0493164 1.16803 2.99501 1.78091 6.44243 3.85124L11.7523 24.2463H18.1203L27.8441 0.770541H21.2663ZM69.3387 24.2457H74.9507L70.0577 0.769914H65.1447C62.8759 0.769914 62.3233 2.51937 62.3233 2.51937L53.2081 24.2457H59.5792L60.8533 20.7587H68.6229L69.3387 24.2457ZM62.6134 15.9417L65.8247 7.15675L67.6313 15.9417H62.6134ZM53.6859 6.41577L54.5581 1.37462C54.5581 1.37462 51.8668 0.351074 49.0611 0.351074C46.0281 0.351074 38.8256 1.67667 38.8256 8.12253C38.8256 14.1872 47.279 14.2626 47.279 17.4482C47.279 20.6337 39.6966 20.0629 37.1942 18.0541L36.2856 23.3251C36.2856 23.3251 39.0146 24.6507 43.1842 24.6507C47.355 24.6507 53.647 22.4912 53.647 16.6136C53.647 10.51 45.1176 9.94169 45.1176 7.28799C45.1182 4.63366 51.0705 4.97464 53.6859 6.41577Z" fill="#AEAEAE"/>
</svg>
