<svg width="46" height="46" viewBox="0 0 46 46" fill="none" xmlns="http://www.w3.org/2000/svg">
<path fill-rule="evenodd" clip-rule="evenodd" d="M0 0V46H46V0H0ZM34.4846 25.4493C35.5406 26.4795 36.6572 27.4495 37.6051 28.5883C38.0238 29.0916 38.4199 29.6108 38.7218 30.1939C39.1503 31.0294 38.7619 31.9447 38.0156 31.9952L33.3777 31.9932C32.1806 32.0915 31.2266 31.6089 30.4221 30.7899C29.7823 30.1378 29.1843 29.4398 28.5667 28.7656C28.3154 28.488 28.0496 28.2283 27.7338 28.0213C27.1002 27.6107 26.5506 27.7354 26.1885 28.3952C25.8202 29.0675 25.7336 29.8138 25.6996 30.5623C25.6492 31.6549 25.3195 31.9407 24.2229 31.9933C21.8766 32.1019 19.6514 31.7455 17.5848 30.5643C15.7598 29.5223 14.3475 28.0491 13.1179 26.3833C10.7216 23.1356 8.88639 19.5701 7.23858 15.902C6.86613 15.0754 7.13819 14.6323 8.04727 14.6164C9.56274 14.5864 11.0776 14.5901 12.591 14.6144C13.2065 14.6247 13.615 14.9765 13.8504 15.558C14.6694 17.5705 15.6712 19.4857 16.9287 21.2627C17.2651 21.7356 17.6071 22.2064 18.0917 22.5402C18.629 22.9105 19.0396 22.7895 19.2929 22.1879C19.4542 21.8057 19.5247 21.3993 19.5587 20.9908C19.6792 19.5923 19.6937 18.1922 19.4861 16.7979C19.3573 15.9263 18.8644 15.3628 17.9954 15.198C17.5524 15.1135 17.6188 14.9507 17.8321 14.6967C18.2066 14.2605 18.5589 13.9884 19.2569 13.9884H24.4986C25.3253 14.1497 25.5107 14.522 25.623 15.353L25.6272 21.1782C25.6173 21.5001 25.7884 22.4536 26.3658 22.6648C26.8283 22.8177 27.1364 22.4453 27.414 22.1517C28.6693 20.8196 29.5651 19.2445 30.3655 17.6147C30.7198 16.8982 31.0258 16.1539 31.3236 15.409C31.543 14.8578 31.885 14.5863 32.5067 14.5962L37.5532 14.6023C37.702 14.6023 37.8551 14.6023 38.0019 14.6265C38.8507 14.7733 39.0841 15.1396 38.8204 15.9704C38.4083 17.272 37.6011 18.3589 36.8146 19.4473C35.9713 20.6124 35.074 21.7369 34.237 22.9082C33.4725 23.9808 33.5328 24.52 34.4846 25.4493Z" fill="white"/>
</svg>
