<svg width="8" height="8" viewBox="0 0 8 8" fill="none" xmlns="http://www.w3.org/2000/svg">
<path d="M7.66016 4.22266L4.84766 7.03516C4.78792 7.09292 4.70809 7.1252 4.625 7.1252C4.54191 7.1252 4.46208 7.09292 4.40234 7.03516C4.34366 6.97591 4.31074 6.89589 4.31074 6.8125C4.31074 6.72911 4.34366 6.6491 4.40234 6.58985L6.68359 4.3125H0.5625C0.47962 4.3125 0.400134 4.27958 0.341529 4.22097C0.282924 4.16237 0.25 4.08288 0.25 4C0.25 3.91712 0.282924 3.83764 0.341529 3.77903C0.400134 3.72043 0.47962 3.6875 0.5625 3.6875H6.68359L4.40234 1.41016C4.35251 1.34944 4.32704 1.27236 4.3309 1.19391C4.33475 1.11545 4.36765 1.04124 4.42319 0.985694C4.47873 0.930152 4.55295 0.897255 4.6314 0.893402C4.70986 0.889549 4.78694 0.915015 4.84766 0.964847L7.66016 3.77735C7.71884 3.8366 7.75176 3.91661 7.75176 4C7.75176 4.08339 7.71884 4.16341 7.66016 4.22266Z" fill="white"/>
</svg>
