<svg width="46" height="46" viewBox="0 0 46 46" fill="none" xmlns="http://www.w3.org/2000/svg">
<path d="M45.9865 0H0.0134766C0.00603366 0 0 0.00603366 0 0.0134766V45.9865C0 45.994 0.00603366 46 0.0134766 46H45.9865C45.994 46 46 45.994 46 45.9865V0.0134766C46 0.00603366 45.994 0 45.9865 0Z" fill="white"/>
<path d="M11.0508 35.3086L12.3086 29.4688C10.6919 26.9189 10.0612 23.8667 10.5349 20.8849C11.0086 17.9031 12.554 15.1965 14.8812 13.2731C17.2085 11.3497 20.1576 10.3415 23.1752 10.4378C26.1929 10.5341 29.0718 11.7282 31.2716 13.7961C33.4715 15.864 34.8412 18.6635 35.1238 21.6695C35.4064 24.6755 34.5825 27.6812 32.8065 30.1229C31.0306 32.5645 28.4247 34.2743 25.4779 34.9313C22.531 35.5883 19.4457 35.1475 16.8008 33.6915L11.0508 35.3086Z" fill="white" stroke="#310062" stroke-width="4.25455"/>
<path d="M27.6719 24.5274C27.4023 24.3477 27.1328 24.2579 26.8633 24.6172L25.7851 26.0547C25.5156 26.2344 25.3359 26.3243 24.9765 26.1446C23.6289 25.4258 21.7422 24.6172 20.125 21.9219C20.0351 21.5626 20.2148 21.3829 20.3945 21.2032L21.2031 19.9454C21.3828 19.7657 21.293 19.586 21.2031 19.4063L20.125 16.8008C19.8555 16.0821 19.5859 16.1719 19.3164 16.1719H18.5976C18.418 16.1719 18.0586 16.2618 17.6992 16.6211C15.7226 18.5977 16.5312 21.3829 17.9687 23.1797C18.2383 23.5391 20.0351 26.7735 23.8984 28.4805C26.7734 29.7383 27.4023 29.5586 28.2109 29.379C29.1992 29.2891 30.1875 28.4805 30.6367 27.6719C30.7265 27.4024 31.1758 26.2344 30.8164 26.0547" fill="#310062"/>
</svg>
