<svg width="16" height="16" viewBox="0 0 16 16" fill="none" xmlns="http://www.w3.org/2000/svg">
<path d="M5.99989 13.75C5.80106 13.7491 5.61043 13.6706 5.46864 13.5312C5.39872 13.4616 5.34324 13.3788 5.30539 13.2876C5.26753 13.1964 5.24805 13.0987 5.24805 13C5.24805 12.9013 5.26753 12.8035 5.30539 12.7124C5.34324 12.6212 5.39872 12.5384 5.46864 12.4687L9.93739 7.99999L5.46864 3.53124C5.32774 3.39034 5.24859 3.19925 5.24859 2.99999C5.24859 2.90133 5.26802 2.80363 5.30578 2.71248C5.34353 2.62133 5.39887 2.5385 5.46864 2.46874C5.5384 2.39897 5.62123 2.34363 5.71238 2.30588C5.80353 2.26812 5.90123 2.24869 5.99989 2.24869C6.19915 2.24869 6.39024 2.32784 6.53114 2.46874L11.5311 7.46874C11.6011 7.53841 11.6565 7.62121 11.6944 7.71237C11.7322 7.80354 11.7517 7.90128 11.7517 7.99999C11.7517 8.0987 11.7322 8.19644 11.6944 8.2876C11.6565 8.37876 11.6011 8.46156 11.5311 8.53124L6.53114 13.5312C6.38935 13.6706 6.19872 13.7491 5.99989 13.75Z" fill="#EF5DA8"/>
</svg>
